<?xml version="1.0" standalone="no"?>
<!DOCTYPE svg PUBLIC "-//W3C//DTD SVG 20010904//EN"
 "http://www.w3.org/TR/2001/REC-SVG-20010904/DTD/svg10.dtd">
<svg version="1.0" xmlns="http://www.w3.org/2000/svg"
 width="1122.000000pt" height="417.000000pt" viewBox="0 0 1122.000000 417.000000"
 preserveAspectRatio="xMidYMid meet">

<g transform="translate(0.000000,417.000000) scale(0.100000,-0.100000)"
fill="#000000" stroke="none">
<path d="M6303 3300 c-83 -22 -132 -45 -191 -92 -52 -42 -126 -138 -146 -193
-8 -22 -20 -53 -26 -68 -10 -29 -11 -28 -50 50 -164 328 -609 369 -784 71 -46
-80 -66 -183 -66 -350 l0 -148 -80 0 c-73 0 -80 -2 -80 -20 0 -18 7 -20 80
-20 l79 0 3 -603 3 -603 27 -41 c41 -62 101 -86 221 -91 l97 -4 0 671 0 671
260 0 259 0 3 -603 3 -603 27 -41 c41 -62 101 -86 221 -91 l97 -4 0 671 0 671
125 0 c118 0 125 1 125 20 0 19 -7 20 -126 20 l-127 0 6 233 c6 283 19 339 91
415 19 21 50 38 84 48 157 46 325 -56 455 -275 27 -44 50 -81 53 -81 2 0 4 56
4 125 l0 124 -64 36 c-35 20 -102 50 -148 66 -164 60 -305 73 -435 39z m-595
-149 c79 -41 145 -136 177 -257 9 -32 19 -119 22 -191 l6 -133 -263 0 -263 0
6 173 c5 133 11 187 27 239 24 78 70 143 120 169 45 25 120 24 168 0z"/>
<path d="M1930 2164 c0 -595 3 -807 12 -837 27 -90 116 -137 260 -137 l78 0 2
421 3 422 245 -369 c135 -203 260 -386 279 -407 58 -64 69 -67 276 -67 102 0
185 2 185 5 0 3 -166 254 -369 559 l-369 554 200 218 c111 121 246 267 301
327 86 92 96 107 75 107 -19 0 -108 -91 -424 -436 l-399 -436 -5 368 c-5 349
-6 371 -26 404 -41 71 -112 100 -241 100 l-83 0 0 -796z"/>
<path d="M3950 2576 c-84 -18 -188 -58 -267 -102 l-63 -35 0 -131 0 -132 53
89 c62 106 162 212 233 248 107 54 250 55 340 2 139 -81 138 -272 -1 -404 -66
-63 -139 -99 -345 -173 -289 -103 -402 -174 -453 -285 -32 -70 -31 -218 2
-285 37 -75 95 -134 169 -170 64 -32 71 -33 182 -33 160 1 291 44 450 150 79
53 101 76 43 47 -56 -29 -154 -46 -224 -38 -112 11 -198 63 -245 148 -26 48
-29 62 -29 143 0 78 4 97 27 141 59 113 179 185 498 304 208 77 261 102 309
150 66 67 57 164 -23 238 -97 89 -237 132 -446 138 -98 2 -166 -1 -210 -10z"/>
<path d="M7141 2579 c-211 -41 -385 -167 -469 -339 -64 -130 -77 -191 -77
-360 1 -160 13 -226 66 -337 116 -244 368 -395 638 -380 123 6 213 36 311 102
87 59 157 141 205 240 48 101 55 131 18 80 -182 -247 -565 -225 -763 43 -78
105 -140 281 -140 397 l0 35 486 0 487 0 -6 45 c-40 286 -296 488 -616 484
-53 -1 -116 -5 -140 -10z m259 -51 c54 -23 114 -79 143 -133 29 -53 31 -188 4
-257 l-19 -48 -299 0 -299 0 0 29 c0 57 29 180 56 237 81 172 251 242 414 172z"/>
<path d="M8591 2579 c-211 -41 -385 -167 -469 -339 -64 -130 -77 -191 -77
-360 1 -160 13 -226 66 -337 116 -244 368 -395 638 -380 123 6 213 36 311 102
87 59 157 141 205 240 48 101 55 131 18 80 -182 -247 -565 -225 -763 43 -78
105 -140 281 -140 397 l0 35 486 0 487 0 -6 45 c-40 286 -296 488 -616 484
-53 -1 -116 -5 -140 -10z m259 -51 c54 -23 114 -79 143 -133 29 -53 31 -188 4
-257 l-19 -48 -299 0 -299 0 0 29 c0 57 29 180 56 237 81 172 251 242 414 172z"/>
<path d="M4616 1767 c-47 -121 -121 -240 -192 -311 -31 -31 -60 -56 -65 -56
-14 0 -10 -63 6 -111 33 -92 108 -135 223 -127 68 5 150 34 185 66 19 16 18
17 -18 22 -26 3 -44 14 -59 33 -20 27 -21 42 -24 303 -2 151 -6 274 -11 274
-4 0 -24 -42 -45 -93z"/>
</g>
</svg>
